<svg width="258" height="186" viewBox="0 0 258 186" fill="none" xmlns="http://www.w3.org/2000/svg">
<circle cx="128.995" cy="92.6521" r="92.5992" fill="#BB6BD9" fill-opacity="0.12"/>
<path d="M204.298 91.958C204.298 82.0345 191.863 72.63 172.798 66.798C177.198 47.3784 175.243 31.9282 166.627 26.9817C164.641 25.8214 162.319 25.2718 159.783 25.2718V32.0809C161.189 32.0809 162.319 32.3557 163.266 32.8748C167.421 35.2564 169.224 44.325 167.818 55.989C167.482 58.8592 166.932 61.8821 166.26 64.966C160.272 63.5004 153.734 62.3706 146.86 61.6378C142.735 55.989 138.458 50.8593 134.15 46.3708C144.11 37.119 153.459 32.0504 159.814 32.0504V25.2413C151.412 25.2413 140.413 31.2259 129.292 41.6075C118.171 31.287 107.172 25.3634 98.7702 25.3634V32.1725C105.095 32.1725 114.474 37.2106 124.434 46.4013C120.157 50.8898 115.879 55.989 111.816 61.6378C104.911 62.3706 98.373 63.5004 92.3847 64.9965C91.682 61.9431 91.1627 58.9813 90.796 56.1417C89.3601 44.4777 91.1321 35.4091 95.2567 32.9969C96.1732 32.4473 97.3648 32.203 98.7702 32.203V25.3939C96.2038 25.3939 93.8818 25.9436 91.8654 27.1038C83.2801 32.0504 81.3554 47.47 85.7854 66.8286C66.7819 72.6911 54.4082 82.065 54.4082 91.958C54.4082 101.882 66.843 111.286 85.9076 117.118C81.5081 136.538 83.4635 151.988 92.0792 156.934C94.0651 158.095 96.3871 158.644 98.9535 158.644C107.355 158.644 118.354 152.66 129.475 142.278C140.596 152.599 151.595 158.522 159.997 158.522C162.563 158.522 164.885 157.973 166.902 156.812C175.487 151.866 177.412 136.446 172.982 117.088C191.924 111.256 204.298 101.851 204.298 91.958ZM164.519 71.5919C163.388 75.5308 161.983 79.5918 160.394 83.6528C159.142 81.2101 157.828 78.7674 156.392 76.3246C154.986 73.8819 153.489 71.5003 151.992 69.1797C156.331 69.8209 160.516 70.6148 164.519 71.5919ZM150.526 104.111C148.143 108.233 145.699 112.141 143.163 115.775C138.61 116.171 133.997 116.385 129.353 116.385C124.74 116.385 120.126 116.171 115.605 115.805C113.069 112.172 110.594 108.294 108.211 104.202C105.889 100.202 103.781 96.1412 101.856 92.0496C103.75 87.9581 105.889 83.8665 108.18 79.8666C110.563 75.7445 113.008 71.8361 115.543 68.2026C120.096 67.8057 124.709 67.5919 129.353 67.5919C133.966 67.5919 138.58 67.8057 143.102 68.1721C145.637 71.8056 148.112 75.6834 150.495 79.775C152.817 83.7749 154.925 87.8359 156.85 91.9275C154.925 96.0191 152.817 100.111 150.526 104.111ZM160.394 100.141C162.044 104.233 163.449 108.324 164.61 112.294C160.608 113.271 156.392 114.095 152.023 114.736C153.52 112.385 155.017 109.973 156.422 107.5C157.828 105.057 159.142 102.584 160.394 100.141ZM129.414 132.721C126.573 129.79 123.731 126.523 120.921 122.95C123.67 123.072 126.481 123.164 129.323 123.164C132.194 123.164 135.036 123.103 137.816 122.95C135.066 126.523 132.225 129.79 129.414 132.721ZM106.683 114.736C102.345 114.095 98.1591 113.301 94.1568 112.324C95.2872 108.385 96.6926 104.324 98.2813 100.263C99.534 102.706 100.848 105.149 102.284 107.591C103.72 110.034 105.186 112.416 106.683 114.736ZM129.261 51.1952C132.103 54.1264 134.944 57.3936 137.755 60.966C135.005 60.8439 132.194 60.7523 129.353 60.7523C126.481 60.7523 123.64 60.8134 120.86 60.966C123.609 57.3936 126.451 54.1264 129.261 51.1952ZM106.653 69.1797C105.156 71.5308 103.659 73.943 102.253 76.4162C100.848 78.859 99.534 81.3017 98.2813 83.7444C96.6315 79.6528 95.2261 75.5613 94.0651 71.5919C98.0675 70.6453 102.284 69.8209 106.653 69.1797ZM79.0028 107.408C68.1873 102.798 61.1908 96.7519 61.1908 91.958C61.1908 87.1642 68.1873 81.0879 79.0028 76.5078C81.6303 75.3781 84.5022 74.3705 87.4658 73.4239C89.2073 79.4086 91.4987 85.6375 94.3401 92.0191C91.5293 98.3702 89.2684 104.569 87.5575 110.523C84.5328 109.576 81.6609 108.538 79.0028 107.408ZM95.44 151.041C91.2849 148.66 89.4823 139.591 90.8877 127.927C91.2238 125.057 91.7737 122.034 92.4459 118.95C98.4341 120.416 104.972 121.545 111.847 122.278C115.971 127.927 120.248 133.057 124.556 137.545C114.596 146.797 105.247 151.866 98.8924 151.866C97.5175 151.835 96.3565 151.56 95.44 151.041ZM167.91 127.774C169.346 139.438 167.574 148.507 163.449 150.919C162.533 151.469 161.341 151.713 159.936 151.713C153.612 151.713 144.232 146.675 134.272 137.484C138.549 132.996 142.827 127.897 146.89 122.248C153.795 121.515 160.333 120.385 166.321 118.889C167.024 121.973 167.574 124.935 167.91 127.774ZM179.673 107.408C177.045 108.538 174.173 109.546 171.21 110.492C169.468 104.508 167.177 98.2786 164.335 91.897C167.146 85.5459 169.407 79.3475 171.118 73.3934C174.143 74.3399 177.015 75.3781 179.703 76.5078C190.519 81.1185 197.515 87.1642 197.515 91.958C197.485 96.7519 190.488 102.828 179.673 107.408Z" fill="#61DAFB"/>
<path d="M129.323 105.912C137.034 105.912 143.285 99.6647 143.285 91.9581C143.285 84.2515 137.034 78.004 129.323 78.004C121.611 78.004 115.36 84.2515 115.36 91.9581C115.36 99.6647 121.611 105.912 129.323 105.912Z" fill="#61DAFB"/>
</svg>
